<svg xmlns="http://www.w3.org/2000/svg" viewBox="0 0 220 220" role="img" aria-label="IOTIQ Innovations Private Limited stamp">
  <defs>
    <filter id="stampNoise" x="-10%" y="-10%" width="120%" height="120%">
      <feTurbulence type="fractalNoise" baseFrequency="0.8" numOctaves="2" seed="7" result="noise"/>
      <feDisplacementMap in="SourceGraphic" in2="noise" scale="1.4" xChannelSelector="R" yChannelSelector="G"/>
    </filter>
    <path id="topText" d="M 42 104 A 68 68 0 0 1 178 104"/>
    <path id="bottomText" d="M 178 122 A 68 68 0 0 1 42 122"/>
  </defs>
  <g fill="none" stroke="#1260bd" stroke-linecap="round" stroke-linejoin="round" filter="url(#stampNoise)" opacity="0.92">
    <circle cx="110" cy="110" r="84" stroke-width="4"/>
    <circle cx="110" cy="110" r="71" stroke-width="2.4"/>
    <path d="M44 144c26 16 103 18 132 0" stroke-width="2"/>
    <path d="M56 72c37-18 75-18 108 0" stroke-width="1.8" opacity="0.5"/>
    <path d="M72 122c11-13 20-31 26-54 1-5 8-3 8 2-1 22-10 55-26 82" stroke-width="3"/>
    <path d="M95 136c13-28 23-46 33-53 6-4 11 1 8 8-5 11-11 23-17 38" stroke-width="3"/>
    <path d="M122 132c11-22 22-36 33-42 5-3 9 2 7 7-6 14-13 26-20 39" stroke-width="3"/>
    <path d="M72 149c36-13 70-13 101-1" stroke-width="2.4"/>
  </g>
  <g fill="#1260bd" font-family="Arial, Helvetica, sans-serif" filter="url(#stampNoise)" opacity="0.95">
    <text font-size="16" font-weight="700" letter-spacing="1.2">
      <textPath href="#topText" startOffset="50%" text-anchor="middle">IOTIQ INNOVATIONS PRIVATE LIMITED</textPath>
    </text>
    <text font-size="12" font-weight="700" letter-spacing="1.4">
      <textPath href="#bottomText" startOffset="50%" text-anchor="middle">HYDERABAD INDIA</textPath>
    </text>
    <text x="110" y="166" text-anchor="middle" font-size="15" font-weight="700">IOTIQ</text>
    <text x="110" y="183" text-anchor="middle" font-size="9" font-weight="700" letter-spacing="1">PRIVATE LIMITED</text>
  </g>
</svg>
